<?xml version="1.0" standalone="no"?>
<!DOCTYPE svg PUBLIC "-//W3C//DTD SVG 20010904//EN"
 "http://www.w3.org/TR/2001/REC-SVG-20010904/DTD/svg10.dtd">
<svg version="1.0" xmlns="http://www.w3.org/2000/svg"
 width="700.000000pt" height="700.000000pt" viewBox="0 0 700.000000 700.000000"
 preserveAspectRatio="xMidYMid meet">
<metadata>
Created by potrace 1.14, written by Peter Selinger 2001-2017
</metadata>
<g transform="translate(0.000000,700.000000) scale(0.100000,-0.100000)"
fill="#000000" stroke="none">
<path d="M3269 6990 c-674 -47 -1317 -284 -1850 -681 -467 -348 -824 -781
-1074 -1302 -544 -1134 -433 -2481 289 -3511 228 -325 537 -634 862 -862 1122
-787 2617 -842 3793 -139 804 481 1383 1264 1606 2170 130 527 134 1080 14
1615 -37 160 -128 442 -194 595 -431 1006 -1319 1761 -2376 2019 -167 41 -274
60 -449 80 -164 19 -463 27 -621 16z m2021 -2000 l0 -440 -1790 0 -1790 0 0
440 0 440 1790 0 1790 0 0 -440z m-712 -1392 l2 -428 -910 0 -910 0 0 -280 0
-280 1350 0 1350 0 0 -430 0 -430 -1775 0 -1775 0 0 710 0 710 -445 0 -445 0
0 423 c0 233 3 427 7 430 3 4 803 6 1777 5 l1771 -3 3 -427z"/>
</g>
</svg>
