<?xml version="1.0" encoding="UTF-8"?>
<svg width="26px" height="19px" viewBox="0 0 26 19" version="1.1" xmlns="http://www.w3.org/2000/svg" xmlns:xlink="http://www.w3.org/1999/xlink">
    <title>chevron_left_orange</title>
    <g id="Page-1" stroke="none" stroke-width="1" fill="none" fill-rule="evenodd">
        <g id="chevron_left_orange" transform="translate(13.000000, 9.140870) rotate(-180.000000) translate(-13.000000, -9.140870) translate(0.000000, -0.000000)" fill="#FF9900" fill-rule="nonzero">
            <path d="M17.5080978,0.274944 C17.1538901,-0.091648 16.5643696,-0.091648 16.1977771,0.274944 C15.8435694,0.629152 15.8435694,1.218673 16.1977771,1.572055 L22.8418546,8.216132 L0.9173071,8.216132 C0.4062242,8.216958 0,8.623182 0,9.134265 C0,9.645348 0.4062242,10.064782 0.9173071,10.064782 L22.8418546,10.064782 L16.1977771,16.696475 C15.8435694,17.063068 15.8435694,17.653414 16.1977771,18.006796 C16.5643696,18.373388 17.1547158,18.373388 17.5080978,18.006796 L25.7250556,9.789838 C26.0916481,9.43563 26.0916481,8.84611 25.7250556,8.492728 L17.5080978,0.274944 Z" id="Arrow-right-active" transform="translate(13.000000, 9.140870) rotate(-180.000000) translate(-13.000000, -9.140870) "></path>
        </g>
    </g>
</svg>