<?xml version="1.0" encoding="UTF-8"?>
<svg width="26px" height="19px" viewBox="0 0 26 19" version="1.1" xmlns="http://www.w3.org/2000/svg" xmlns:xlink="http://www.w3.org/1999/xlink">
    <title>Arrow right active</title>
    <g id="UI-design" stroke="none" stroke-width="1" fill="none" fill-rule="evenodd">
        <g id="D---HOME" transform="translate(-211.000000, -3471.000000)" fill="#FF9900" fill-rule="nonzero">
            <g id="Large/Recente-projecten" transform="translate(165.000000, 2876.000000)">
                <path d="M63.5080978,595.274944 C63.1538901,594.908352 62.5643696,594.908352 62.1977771,595.274944 C61.8435694,595.629152 61.8435694,596.218673 62.1977771,596.572055 L68.8418546,603.216132 L46.9173071,603.216132 C46.4062242,603.216958 46,603.623182 46,604.134265 C46,604.645348 46.4062242,605.064782 46.9173071,605.064782 L68.8418546,605.064782 L62.1977771,611.696475 C61.8435694,612.063068 61.8435694,612.653414 62.1977771,613.006796 C62.5643696,613.373388 63.1547158,613.373388 63.5080978,613.006796 L71.7250556,604.789838 C72.0916481,604.43563 72.0916481,603.84611 71.7250556,603.492728 L63.5080978,595.274944 Z" id="Arrow-right-active" transform="translate(59.000000, 604.140870) rotate(-180.000000) translate(-59.000000, -604.140870) "></path>
            </g>
        </g>
    </g>
</svg>