<?xml version="1.0" encoding="UTF-8"?>
<svg width="26px" height="19px" viewBox="0 0 26 19" version="1.1" xmlns="http://www.w3.org/2000/svg" xmlns:xlink="http://www.w3.org/1999/xlink">
    <title>Arrow left</title>
    <g id="UI-design" stroke="none" stroke-width="1" fill="none" fill-rule="evenodd">
        <g id="D---HOME" transform="translate(-165.000000, -3471.000000)" fill="#FFF" fill-rule="nonzero">
            <g id="Large/Recente-projecten" transform="translate(165.000000, 2876.000000)">
                <path d="M17.5080978,595.274944 C17.1538901,594.908352 16.5643696,594.908352 16.1977771,595.274944 C15.8435694,595.629152 15.8435694,596.218673 16.1977771,596.572055 L22.8418546,603.216132 L0.917307082,603.216132 C0.406224198,603.216958 0,603.623182 0,604.134265 C0,604.645348 0.406224198,605.064782 0.917307082,605.064782 L22.8418546,605.064782 L16.1977771,611.696475 C15.8435694,612.063068 15.8435694,612.653414 16.1977771,613.006796 C16.5643696,613.373388 17.1547158,613.373388 17.5080978,613.006796 L25.7250556,604.789838 C26.0916481,604.43563 26.0916481,603.84611 25.7250556,603.492728 L17.5080978,595.274944 Z" id="Arrow-left" transform="translate(13.000000, 604.140870) scale(-1, 1) translate(-13.000000, -604.140870) "></path>
            </g>
        </g>
    </g>
</svg>