<?xml version="1.0" encoding="utf-8"?>
<!-- Generator: Adobe Illustrator 16.0.0, SVG Export Plug-In . SVG Version: 6.00 Build 0)  -->
<!DOCTYPE svg PUBLIC "-//W3C//DTD SVG 1.1//EN" "http://www.w3.org/Graphics/SVG/1.1/DTD/svg11.dtd">
<svg version="1.1" id="Layer_1" xmlns="http://www.w3.org/2000/svg" xmlns:xlink="http://www.w3.org/1999/xlink" x="0px" y="0px"
	 width="1041.677px" height="474.784px" viewBox="0 0 1041.677 474.784" enable-background="new 0 0 1041.677 474.784"
	 xml:space="preserve">
<g id="omi-logo_xA0_Image_1_">
	<g>
		<path fill="#FFFFFF" d="M189.11,0.001c-93.735,0-169.725,75.988-169.725,169.724c0,93.737,75.988,169.725,169.725,169.725
			c93.737,0,169.725-75.988,169.725-169.725C358.834,75.989,282.846,0.001,189.11,0.001z M189.11,326.107
			c-86.367,0-156.384-70.012-156.384-156.381c0-86.368,70.016-156.384,156.384-156.384c86.369,0,156.385,70.016,156.385,156.384
			C345.494,256.094,275.479,326.107,189.11,326.107z"/>
		<path fill="#FFFFFF" d="M990.024,6.393c0-3.531-2.863-6.393-6.395-6.393l0,0c-3.53,0-6.393,2.862-6.393,6.393v326.665
			c0,3.531,2.862,6.393,6.393,6.393l0,0c3.53,0,6.395-2.861,6.395-6.393V6.393z"/>
		<path fill="#FFFFFF" d="M825.74,5.905c-0.065-0.871-0.305-1.691-0.685-2.429c-0.013-0.025-0.025-0.051-0.037-0.076
			c-0.07-0.135-0.154-0.266-0.234-0.395c-0.027-0.049-0.056-0.097-0.085-0.144c-0.071-0.109-0.154-0.212-0.23-0.316
			c-0.049-0.064-0.09-0.128-0.142-0.188c-0.079-0.095-0.16-0.183-0.244-0.273c-0.056-0.062-0.109-0.128-0.17-0.188
			c-0.116-0.114-0.23-0.218-0.354-0.323c-0.033-0.03-0.064-0.064-0.1-0.093c-0.498-0.413-1.055-0.75-1.662-0.999l0,0
			c-0.191-0.078-0.39-0.148-0.59-0.208c-0.05-0.015-0.099-0.024-0.145-0.038c-0.153-0.041-0.301-0.081-0.459-0.112
			c-0.088-0.018-0.185-0.028-0.276-0.042c-0.112-0.017-0.224-0.038-0.341-0.049c-0.135-0.014-0.268-0.017-0.401-0.02
			c-0.071-0.003-0.144-0.012-0.218-0.012c-0.004,0-0.011,0.001-0.017,0.001c-0.135,0-0.265,0.012-0.401,0.02
			c-0.691,0.045-1.354,0.196-1.966,0.444c-0.017,0.006-0.032,0.011-0.05,0.016c-0.145,0.061-0.29,0.13-0.429,0.202
			c-0.048,0.022-0.095,0.042-0.14,0.066c-0.107,0.06-0.215,0.126-0.321,0.191c-0.076,0.045-0.149,0.085-0.221,0.133
			c-0.079,0.051-0.149,0.11-0.225,0.165c-0.094,0.068-0.188,0.135-0.28,0.21c-0.051,0.042-0.103,0.09-0.154,0.136
			c-0.103,0.09-0.21,0.183-0.309,0.281c-0.046,0.043-0.082,0.089-0.122,0.134c-0.1,0.105-0.202,0.209-0.292,0.323
			c-0.271,0.326-0.505,0.677-0.706,1.052c-0.002,0.001-0.002,0.001-0.002,0.002L645.943,317.041L478.146,3.376
			c-0.001-0.002-0.004-0.005-0.006-0.007c-0.1-0.188-0.21-0.373-0.329-0.55c-0.075-0.111-0.157-0.212-0.237-0.316
			c-0.045-0.058-0.087-0.12-0.134-0.177c-0.108-0.133-0.225-0.256-0.343-0.378c-0.024-0.025-0.047-0.053-0.073-0.08
			c-0.109-0.108-0.226-0.209-0.342-0.31c-0.04-0.035-0.079-0.073-0.12-0.108c-0.098-0.081-0.202-0.154-0.305-0.228
			c-0.067-0.048-0.132-0.1-0.202-0.146c-0.08-0.052-0.161-0.098-0.24-0.146c-0.099-0.062-0.198-0.123-0.301-0.179
			c-0.053-0.027-0.106-0.051-0.159-0.076c-0.135-0.067-0.271-0.133-0.411-0.192c-0.02-0.008-0.044-0.016-0.065-0.024
			c-0.606-0.242-1.259-0.393-1.941-0.436c-0.136-0.01-0.274-0.021-0.411-0.021c-0.006,0-0.012-0.001-0.018-0.001
			c-0.072,0-0.144,0.009-0.217,0.012c-0.134,0.004-0.267,0.006-0.4,0.02c-0.117,0.012-0.233,0.032-0.349,0.05
			c-0.088,0.014-0.178,0.023-0.268,0.041c-0.158,0.031-0.314,0.073-0.467,0.115c-0.045,0.012-0.088,0.021-0.134,0.034
			c-0.836,0.25-1.6,0.665-2.252,1.209c-0.018,0.016-0.036,0.032-0.053,0.048c-0.139,0.118-0.273,0.24-0.4,0.368
			c-0.05,0.05-0.094,0.104-0.14,0.155c-0.094,0.102-0.189,0.203-0.274,0.31c-0.041,0.05-0.078,0.103-0.118,0.155
			c-0.086,0.115-0.175,0.229-0.254,0.351c-0.024,0.034-0.044,0.073-0.066,0.108c-0.09,0.142-0.177,0.284-0.256,0.432
			c-0.007,0.011-0.011,0.021-0.016,0.032c-0.413,0.79-0.661,1.676-0.711,2.616c-0.005,0.107-0.016,0.214-0.016,0.322
			c0,0.007-0.001,0.012-0.001,0.018v326.664c0,3.531,2.862,6.395,6.392,6.395c3.531,0,6.394-2.863,6.394-6.395V31.893
			l161.004,300.972c0.52,1.422,1.538,2.665,2.979,3.437c0.975,0.523,2.023,0.769,3.058,0.76c1.033,0.009,2.081-0.236,3.056-0.76
			c1.44-0.771,2.456-2.015,2.977-3.437L812.98,31.894v301.164c0,3.531,2.861,6.393,6.391,6.393c3.531,0,6.396-2.861,6.396-6.393
			V6.393c0-0.004,0-0.008,0-0.012C825.766,6.221,825.753,6.063,825.74,5.905z"/>
	</g>
</g>
<g id="Layer_2">
</g>
<g id="Layer_3">
</g>
<g>
	<path fill="#FFFFFF" d="M1007.02,470.859h31.404v-7.075h-23.368v-12.72h22.887v-7.074h-22.887v-11.892h23.368v-7.076h-31.404
		V470.859L1007.02,470.859z M990.732,439.381c0,4.408-3.301,7.293-7.832,7.293h-11.005V432.1H982.9
		C987.431,432.099,990.732,434.985,990.732,439.381 M990.043,470.859h9.274l-11.198-18.004c5.499-0.896,10.856-5.292,10.856-13.475
		c0-8.451-5.906-14.357-14.978-14.357h-20.137v45.836h8.033v-17.115h7.976L990.043,470.859z M914.441,452.788
		c0,11.274,6.528,18.898,19.856,18.898c13.272,0,19.799-7.556,19.799-18.966v-27.698h-8.11v27.49c0,7.288-4.049,12.03-11.688,12.03
		c-7.697,0-11.747-4.742-11.747-12.03v-27.49h-8.109V452.788z M885.713,470.859h8.031V432.1h13.89v-7.076h-35.803v7.076h13.883
		L885.713,470.859L885.713,470.859z M849.56,471.687c9.619,0,15.258-4.81,18.76-10.307l-6.869-3.503
		c-2.204,3.849-6.601,6.668-11.89,6.668c-8.732,0-15.466-6.945-15.466-16.571c0-9.621,6.733-16.562,15.466-16.562
		c5.29,0,9.686,2.885,11.89,6.667l6.869-3.507c-3.436-5.499-9.14-10.303-18.76-10.303c-13.201,0-23.711,9.614-23.711,23.705
		C825.848,462.067,836.358,471.687,849.56,471.687 M788.256,470.859h31.4v-7.075h-23.368v-12.72h22.888v-7.074h-22.888v-11.892
		h23.368v-7.076h-31.4V470.859z M759.531,470.859h8.031V432.1h13.883v-7.076h-35.803v7.076h13.89L759.531,470.859L759.531,470.859z
		 M730.804,470.859h8.032v-45.836h-8.032V470.859z M713.005,470.859h8.027v-45.836h-8.027v18.766h-23.859v-18.766h-8.033v45.836
		h8.033v-20.001h23.859V470.859z M655.876,471.687c9.621,0,15.257-4.81,18.76-10.307l-6.867-3.503
		c-2.204,3.849-6.602,6.668-11.892,6.668c-8.727,0-15.466-6.945-15.466-16.571c0-9.621,6.739-16.562,15.466-16.562
		c5.291,0,9.688,2.885,11.892,6.667l6.867-3.507c-3.434-5.499-9.139-10.303-18.76-10.303c-13.2,0-23.704,9.614-23.704,23.705
		C632.173,462.067,642.676,471.687,655.876,471.687 M617.948,439.381c0,4.408-3.301,7.293-7.842,7.293h-11.002V432.1h11.002
		C614.648,432.099,617.948,434.985,617.948,439.381 M617.26,470.859h9.271l-11.193-18.004c5.493-0.896,10.851-5.292,10.851-13.475
		c0-8.451-5.905-14.357-14.979-14.357h-20.133v45.836h8.03v-17.115h7.979L617.26,470.859z M563.028,431.818l8.592,23.174h-17.177
		L563.028,431.818z M577.255,470.859h8.798l-18.008-45.836h-10.034l-18.001,45.836h8.798l3.367-8.798h21.714L577.255,470.859z
		 M498.427,470.859h8.039V432.1h13.882v-7.076h-35.803v7.076h13.882L498.427,470.859L498.427,470.859z M438.084,452.788
		c0,11.274,6.521,18.898,19.862,18.898c13.265,0,19.789-7.556,19.789-18.966v-27.698h-8.104v27.49c0,7.288-4.055,12.03-11.685,12.03
		c-7.702,0-11.756-4.742-11.756-12.03v-27.49h-8.106V452.788L438.084,452.788z M422.068,447.973c0,9.425-5.98,16.571-15.188,16.571
		c-9.285,0-15.194-7.147-15.194-16.571c0-9.487,5.909-16.562,15.194-16.562C416.088,431.41,422.068,438.485,422.068,447.973
		 M383.443,447.973c0,13.681,9.685,23.714,23.436,23.714c13.745,0,23.433-10.033,23.433-23.714c0-13.677-9.688-23.705-23.433-23.705
		C393.128,424.268,383.443,434.296,383.443,447.973 M349.003,463.784v-12.72h13.204c4.603,0,7.01,2.886,7.01,6.326
		c0,3.988-2.611,6.393-7.01,6.393L349.003,463.784L349.003,463.784z M349.003,443.991V432.1h12.86c4.122,0,6.46,2.538,6.46,5.979
		c0,3.439-2.338,5.914-6.46,5.914L349.003,443.991L349.003,443.991z M340.969,470.859h23.161c8.591,0,13.328-5.286,13.328-12.371
		c0-5.633-3.982-10.516-8.861-11.271c4.262-0.889,7.967-4.737,7.967-10.516c0-6.46-4.669-11.678-13.051-11.678h-22.544V470.859z
		 M312.927,431.818l8.586,23.174h-17.178L312.927,431.818z M327.148,470.859h8.799l-18.001-45.836h-10.034l-18.002,45.836h8.793
		l3.367-8.798h21.714L327.148,470.859z M233.275,464.404c4.05,4.323,10.16,7.282,18.62,7.282c12.373,0,17.728-6.526,17.728-14.155
		c0-9.974-8.993-12.306-16.559-14.229c-5.428-1.376-10.109-2.547-10.109-6.12c0-3.435,3.026-5.705,7.772-5.705
		c4.812,0,9.698,1.65,13.267,5.224l4.598-5.979c-4.253-4.118-10.028-6.389-17.177-6.389c-10.04,0-16.696,5.841-16.696,13.396
		c0,9.691,8.787,11.891,16.285,13.747c5.565,1.444,10.45,2.687,10.45,6.809c0,3.024-2.618,6.258-9.214,6.258
		c-6.396,0-11.34-2.958-14.5-6.326L233.275,464.404z M196.574,470.859h31.397v-7.075h-23.368v-12.72h22.887v-7.074h-22.887v-11.892
		h23.368v-7.076h-31.397V470.859z M178.771,470.859h8.033v-45.836h-8.033V470.859z M162.484,439.381
		c0,4.408-3.299,7.293-7.843,7.293h-10.996V432.1h10.996C159.184,432.099,162.484,434.985,162.484,439.381 M161.796,470.859h9.273
		l-11.198-18.004c5.493-0.896,10.854-5.292,10.854-13.475c0-8.451-5.904-14.357-14.984-14.357h-20.131v45.836h8.035v-17.115h7.974
		L161.796,470.859z M119.597,447.973c0,9.425-5.981,16.571-15.196,16.571c-9.279,0-15.188-7.147-15.188-16.571
		c0-9.487,5.909-16.562,15.188-16.562C113.615,431.41,119.597,438.485,119.597,447.973 M80.971,447.973
		c0,13.681,9.685,23.714,23.43,23.714c13.75,0,23.438-10.033,23.438-23.714c0-13.677-9.687-23.705-23.438-23.705
		C90.655,424.268,80.971,434.296,80.971,447.973 M56.022,470.859h8.035V432.1h13.877v-7.076H42.137v7.076h13.885L56.022,470.859
		L56.022,470.859z M2,464.404c4.055,4.323,10.166,7.282,18.62,7.282c12.372,0,17.728-6.526,17.728-14.155
		c0-9.974-8.994-12.306-16.558-14.229c-5.432-1.376-10.104-2.547-10.104-6.12c0-3.435,3.025-5.705,7.766-5.705
		c4.819,0,9.7,1.65,13.27,5.224l4.6-5.979c-4.262-4.118-10.028-6.389-17.182-6.389c-10.034,0-16.696,5.841-16.696,13.396
		c0,9.691,8.792,11.891,16.285,13.747c5.571,1.444,10.451,2.687,10.451,6.809c0,3.024-2.612,6.258-9.214,6.258
		c-6.394,0-11.341-2.958-14.502-6.326L2,464.404z"/>
</g>
</svg>
