<?xml version="1.0" encoding="utf-8"?>
<!-- Generator: Adobe Illustrator 16.0.0, SVG Export Plug-In . SVG Version: 6.00 Build 0)  -->
<!DOCTYPE svg PUBLIC "-//W3C//DTD SVG 1.1//EN" "http://www.w3.org/Graphics/SVG/1.1/DTD/svg11.dtd">
<svg version="1.1" id="Layer_1" xmlns="http://www.w3.org/2000/svg" xmlns:xlink="http://www.w3.org/1999/xlink" x="0px" y="0px"
	 width="1190.881px" height="525.691px" viewBox="0 0 1190.881 525.691" enable-background="new 0 0 1190.881 525.691"
	 xml:space="preserve">
<g id="omi-logo_xA0_Image_1_">
	<g>
		<path fill="#FD521F" d="M211.977,1.967C98.083,1.967,5.752,94.297,5.752,208.191c0,113.895,92.33,206.225,206.225,206.225
			c113.896,0,206.225-92.33,206.225-206.225C418.201,94.297,325.872,1.967,211.977,1.967z M211.977,398.203
			c-104.941,0-190.015-85.068-190.015-190.011c0-104.941,85.073-190.015,190.015-190.015c104.942,0,190.016,85.073,190.016,190.015
			C401.992,313.134,316.92,398.203,211.977,398.203z"/>
		<path fill="#FD521F" d="M1185.129,9.734c0-4.29-3.479-7.768-7.769-7.768l0,0c-4.289,0-7.768,3.478-7.768,7.768v396.914
			c0,4.291,3.479,7.768,7.768,7.768l0,0c4.289,0,7.769-3.477,7.769-7.768V9.734z"/>
		<path fill="#FD521F" d="M985.517,9.141c-0.08-1.058-0.371-2.055-0.832-2.951c-0.016-0.031-0.031-0.062-0.045-0.092
			c-0.086-0.164-0.187-0.323-0.285-0.48c-0.033-0.059-0.067-0.118-0.104-0.175c-0.086-0.132-0.187-0.258-0.279-0.384
			c-0.059-0.078-0.109-0.155-0.172-0.229c-0.096-0.115-0.195-0.222-0.297-0.332c-0.068-0.076-0.133-0.155-0.207-0.229
			c-0.14-0.138-0.279-0.265-0.428-0.392c-0.041-0.037-0.08-0.078-0.123-0.114c-0.604-0.501-1.281-0.911-2.019-1.213l0,0
			c-0.233-0.095-0.473-0.18-0.717-0.253c-0.06-0.018-0.119-0.029-0.176-0.046c-0.185-0.05-0.365-0.098-0.556-0.136
			c-0.108-0.021-0.225-0.034-0.336-0.05c-0.137-0.021-0.272-0.046-0.414-0.06c-0.164-0.017-0.325-0.02-0.489-0.024
			c-0.086-0.003-0.173-0.014-0.263-0.014c-0.006,0-0.014,0.002-0.021,0.002c-0.164,0-0.322,0.014-0.488,0.024
			c-0.84,0.055-1.645,0.238-2.389,0.54c-0.019,0.007-0.039,0.013-0.06,0.02c-0.176,0.074-0.352,0.158-0.521,0.245
			c-0.058,0.027-0.115,0.051-0.17,0.08c-0.131,0.072-0.26,0.153-0.39,0.232c-0.092,0.054-0.182,0.103-0.268,0.161
			c-0.096,0.062-0.182,0.134-0.273,0.2c-0.114,0.083-0.229,0.164-0.34,0.255c-0.063,0.052-0.125,0.11-0.188,0.165
			c-0.125,0.11-0.256,0.222-0.375,0.341c-0.055,0.053-0.099,0.109-0.148,0.163c-0.121,0.128-0.246,0.254-0.356,0.392
			c-0.328,0.396-0.613,0.823-0.857,1.278c-0.002,0.001-0.002,0.002-0.002,0.003L767.052,387.187L563.171,6.068
			c-0.001-0.003-0.005-0.006-0.006-0.009c-0.123-0.229-0.256-0.453-0.4-0.669c-0.091-0.134-0.191-0.257-0.288-0.384
			c-0.055-0.071-0.105-0.146-0.162-0.215c-0.132-0.161-0.274-0.311-0.417-0.459c-0.03-0.031-0.058-0.065-0.089-0.097
			c-0.133-0.132-0.274-0.255-0.415-0.377c-0.049-0.043-0.096-0.089-0.146-0.131c-0.119-0.098-0.245-0.187-0.37-0.277
			c-0.081-0.058-0.16-0.121-0.245-0.178c-0.096-0.063-0.195-0.118-0.292-0.177c-0.12-0.075-0.24-0.149-0.366-0.217
			c-0.063-0.033-0.129-0.062-0.193-0.093c-0.164-0.082-0.328-0.162-0.499-0.233c-0.025-0.01-0.054-0.019-0.08-0.029
			c-0.737-0.294-1.53-0.477-2.359-0.53c-0.165-0.012-0.333-0.025-0.499-0.025c-0.008,0-0.014-0.002-0.021-0.002
			c-0.088,0-0.175,0.011-0.264,0.014c-0.162,0.005-0.324,0.008-0.485,0.024c-0.143,0.014-0.283,0.039-0.424,0.061
			c-0.108,0.017-0.217,0.028-0.325,0.049c-0.192,0.038-0.382,0.089-0.568,0.14c-0.054,0.015-0.107,0.025-0.162,0.042
			c-1.016,0.304-1.944,0.808-2.737,1.469c-0.022,0.019-0.043,0.039-0.065,0.059c-0.168,0.143-0.332,0.291-0.486,0.447
			c-0.061,0.061-0.114,0.126-0.17,0.188c-0.114,0.123-0.229,0.246-0.333,0.376c-0.05,0.061-0.095,0.125-0.143,0.188
			c-0.105,0.14-0.213,0.278-0.309,0.426c-0.029,0.041-0.054,0.088-0.081,0.131c-0.109,0.172-0.215,0.345-0.311,0.525
			c-0.008,0.013-0.013,0.026-0.019,0.039c-0.501,0.959-0.803,2.036-0.863,3.178c-0.007,0.13-0.02,0.26-0.02,0.391
			c0,0.008-0.001,0.015-0.001,0.022v396.914c0,4.291,3.478,7.769,7.767,7.769c4.29,0,7.769-3.478,7.769-7.769V40.718
			l195.628,365.696c0.631,1.728,1.869,3.238,3.619,4.176c1.184,0.636,2.459,0.933,3.715,0.923c1.256,0.01,2.529-0.287,3.713-0.923
			c1.75-0.938,2.984-2.448,3.617-4.176L970.011,40.719v365.929c0,4.291,3.477,7.768,7.766,7.768c4.291,0,7.771-3.477,7.771-7.768
			V9.734c0-0.005,0-0.01,0-0.015C985.547,9.525,985.532,9.333,985.517,9.141z"/>
	</g>
</g>
<g id="Layer_2">
</g>
<g id="Layer_3">
</g>
<g>
	<path fill="#FD521F" d="M1149.391,521.859h35.737v-8.051h-26.592v-14.474h26.044v-8.051h-26.044v-13.531h26.592v-8.052h-35.737
		V521.859z M1130.857,486.039c0,5.016-3.755,8.3-8.911,8.3h-12.525v-16.586h12.525
		C1127.102,477.752,1130.857,481.036,1130.857,486.039 M1130.074,521.859h10.553l-12.742-20.487
		c6.257-1.019,12.354-6.021,12.354-15.333c0-9.617-6.722-16.338-17.045-16.338h-22.913v52.158h9.14v-19.476h9.076L1130.074,521.859z
		 M1044.043,501.295c0,12.831,7.428,21.506,22.595,21.506c15.104,0,22.531-8.599,22.531-21.583v-31.518h-9.229v31.282
		c0,8.293-4.607,13.69-13.302,13.69c-8.758,0-13.366-5.397-13.366-13.69v-31.282h-9.229V501.295z M1011.353,521.859h9.14v-44.106
		h15.804v-8.052h-40.74v8.052h15.797V521.859z M970.213,522.801c10.947,0,17.362-5.474,21.347-11.73l-7.815-3.984
		c-2.508,4.379-7.511,7.587-13.531,7.587c-9.936,0-17.599-7.904-17.599-18.858c0-10.947,7.663-18.846,17.599-18.846
		c6.021,0,11.023,3.284,13.531,7.587l7.815-3.991c-3.908-6.256-10.399-11.724-21.347-11.724c-15.021,0-26.98,10.941-26.98,26.974
		C943.232,511.854,955.191,522.801,970.213,522.801 M900.455,521.859h35.731v-8.051h-26.592v-14.474h26.045v-8.051h-26.045v-13.531
		h26.592v-8.052h-35.731V521.859z M867.766,521.859h9.14v-44.106h15.797v-8.052h-40.74v8.052h15.804V521.859z M835.077,521.859h9.14
		v-52.158h-9.14V521.859z M814.825,521.859h9.133v-52.158h-9.133v21.354h-27.152v-21.354h-9.14v52.158h9.14v-22.76h27.152V521.859z
		 M749.816,522.801c10.947,0,17.362-5.474,21.347-11.73l-7.815-3.984c-2.508,4.379-7.511,7.587-13.531,7.587
		c-9.93,0-17.599-7.904-17.599-18.858c0-10.947,7.669-18.846,17.599-18.846c6.021,0,11.023,3.284,13.531,7.587l7.815-3.991
		c-3.908-6.256-10.399-11.724-21.347-11.724c-15.021,0-26.974,10.941-26.974,26.974
		C722.843,511.854,734.795,522.801,749.816,522.801 M706.657,486.039c0,5.016-3.756,8.3-8.924,8.3h-12.52v-16.586h12.52
		C702.901,477.752,706.657,481.036,706.657,486.039 M705.874,521.859h10.547l-12.736-20.487c6.25-1.019,12.348-6.021,12.348-15.333
		c0-9.617-6.721-16.338-17.045-16.338h-22.909v52.158h9.136v-19.476h9.08L705.874,521.859z M644.162,477.434l9.776,26.369h-19.546
		L644.162,477.434z M660.35,521.859h10.012l-20.491-52.158h-11.418l-20.485,52.158h10.012l3.832-10.011h24.708L660.35,521.859z
		 M570.65,521.859h9.146v-44.106h15.797v-8.052h-40.741v8.052h15.797V521.859z M501.984,501.295
		c0,12.831,7.421,21.506,22.601,21.506c15.094,0,22.518-8.599,22.518-21.583v-31.518h-9.222v31.282
		c0,8.293-4.614,13.69-13.296,13.69c-8.764,0-13.378-5.397-13.378-13.69v-31.282h-9.223V501.295z M483.759,495.815
		c0,10.725-6.804,18.858-17.283,18.858c-10.565,0-17.29-8.134-17.29-18.858c0-10.795,6.724-18.846,17.29-18.846
		C476.955,476.969,483.759,485.02,483.759,495.815 M439.807,495.815c0,15.568,11.021,26.986,26.668,26.986
		c15.641,0,26.665-11.418,26.665-26.986c0-15.562-11.023-26.974-26.665-26.974C450.828,468.841,439.807,480.253,439.807,495.815
		 M400.617,513.808v-14.474h15.024c5.238,0,7.978,3.284,7.978,7.198c0,4.538-2.972,7.275-7.978,7.275H400.617z M400.617,491.284
		v-13.531h14.633c4.69,0,7.351,2.889,7.351,6.804c0,3.914-2.661,6.728-7.351,6.728H400.617z M391.474,521.859h26.356
		c9.776,0,15.167-6.015,15.167-14.078c0-6.409-4.532-11.966-10.084-12.825c4.85-1.012,9.066-5.391,9.066-11.966
		c0-7.351-5.312-13.289-14.852-13.289h-25.653V521.859z M359.565,477.434l9.77,26.369h-19.546L359.565,477.434z M375.747,521.859
		h10.012l-20.484-52.158h-11.418l-20.485,52.158h10.005l3.832-10.011h24.708L375.747,521.859z M268.926,514.514
		c4.608,4.92,11.561,8.287,21.188,8.287c14.079,0,20.173-7.428,20.173-16.109c0-11.348-10.235-14.002-18.843-16.191
		c-6.177-1.565-11.504-2.896-11.504-6.963c0-3.908,3.443-6.492,8.844-6.492c5.477,0,11.037,1.878,15.097,5.944l5.232-6.804
		c-4.84-4.685-11.412-7.269-19.546-7.269c-11.425,0-18.999,6.646-18.999,15.244c0,11.029,9.999,13.531,18.531,15.644
		c6.333,1.643,11.892,3.056,11.892,7.746c0,3.443-2.979,7.122-10.486,7.122c-7.278,0-12.904-3.366-16.5-7.198L268.926,514.514z
		 M227.163,521.859h35.728v-8.051H236.3v-14.474h26.044v-8.051H236.3v-13.531h26.591v-8.052h-35.728V521.859z M206.905,521.859h9.14
		v-52.158h-9.14V521.859z M188.371,486.039c0,5.016-3.755,8.3-8.924,8.3h-12.513v-16.586h12.513
		C184.615,477.752,188.371,481.036,188.371,486.039 M187.588,521.859h10.553l-12.742-20.487c6.25-1.019,12.351-6.021,12.351-15.333
		c0-9.617-6.718-16.338-17.051-16.338h-22.907v52.158h9.143v-19.476h9.073L187.588,521.859z M139.569,495.815
		c0,10.725-6.807,18.858-17.292,18.858c-10.559,0-17.284-8.134-17.284-18.858c0-10.795,6.725-18.846,17.284-18.846
		C132.762,476.969,139.569,485.02,139.569,495.815 M95.615,495.815c0,15.568,11.021,26.986,26.662,26.986
		c15.647,0,26.671-11.418,26.671-26.986c0-15.562-11.024-26.974-26.671-26.974C106.635,468.841,95.615,480.253,95.615,495.815
		 M67.225,521.859h9.143v-44.106h15.791v-8.052H51.425v8.052h15.801V521.859z M5.752,514.514c4.614,4.92,11.568,8.287,21.188,8.287
		c14.079,0,20.173-7.428,20.173-16.109c0-11.348-10.234-14.002-18.842-16.191c-6.181-1.565-11.498-2.896-11.498-6.963
		c0-3.908,3.443-6.492,8.837-6.492c5.483,0,11.037,1.878,15.1,5.944l5.235-6.804c-4.85-4.685-11.412-7.269-19.552-7.269
		c-11.418,0-18.999,6.646-18.999,15.244c0,11.029,10.005,13.531,18.531,15.644c6.339,1.643,11.893,3.056,11.893,7.746
		c0,3.443-2.973,7.122-10.486,7.122c-7.275,0-12.905-3.366-16.503-7.198L5.752,514.514z"/>
</g>
</svg>
